<?xml version="1.0" standalone="no"?>
<!DOCTYPE svg PUBLIC "-//W3C//DTD SVG 20010904//EN"
 "http://www.w3.org/TR/2001/REC-SVG-20010904/DTD/svg10.dtd">
<svg version="1.0" xmlns="http://www.w3.org/2000/svg"
 width="1080.000000pt" height="1080.000000pt" viewBox="0 0 1080.000000 1080.000000"
 preserveAspectRatio="xMidYMid meet">
<metadata>
Created by potrace 1.14, written by Peter Selinger 2001-2017
</metadata>
<g transform="translate(0.000000,1080.000000) scale(0.100000,-0.100000)"
fill="#000000" stroke="none">
<path d="M5139 10166 c-2 -2 -52 -7 -110 -10 -59 -4 -115 -8 -125 -10 -11 -2
-48 -7 -84 -11 -59 -6 -268 -38 -330 -51 -14 -3 -38 -7 -55 -10 -104 -18 -392
-96 -555 -151 -214 -72 -358 -132 -585 -244 -366 -180 -649 -365 -970 -633
-137 -115 -408 -380 -516 -506 -35 -41 -66 -77 -69 -80 -16 -16 -127 -158
-187 -240 -463 -628 -777 -1400 -877 -2155 -3 -22 -8 -59 -11 -83 -23 -167
-30 -307 -30 -582 0 -289 10 -455 39 -645 2 -11 9 -58 15 -104 14 -95 60 -315
91 -436 157 -604 431 -1170 809 -1675 175 -234 486 -564 715 -760 507 -432
1116 -761 1756 -950 114 -34 334 -88 390 -96 19 -3 42 -7 50 -9 8 -2 31 -7 50
-10 19 -3 60 -10 90 -15 56 -10 69 -12 175 -25 33 -3 71 -9 85 -11 158 -25
888 -25 990 1 8 2 47 6 85 10 39 3 77 8 85 10 8 3 31 7 50 9 167 22 489 94
660 148 165 52 334 112 405 142 16 8 80 35 140 61 228 99 443 215 670 363 108
70 337 232 355 252 3 3 43 37 90 75 129 105 152 126 331 305 241 241 417 453
599 725 234 350 437 766 562 1150 62 191 132 464 152 585 3 19 12 71 20 115 8
44 18 105 21 135 4 30 9 62 10 71 2 9 6 52 10 95 4 43 9 90 12 104 8 44 11
611 3 711 -12 144 -21 239 -25 257 -1 9 -6 42 -10 72 -9 73 -36 234 -40 240
-2 3 -6 26 -10 50 -13 93 -85 363 -155 580 -15 47 -80 225 -90 245 -5 11 -21
49 -36 85 -56 138 -219 461 -287 567 -15 24 -27 45 -27 48 0 22 -354 515 -425
591 -5 6 -35 40 -65 75 -53 62 -346 358 -426 429 -212 192 -552 434 -814 583
-562 317 -1184 518 -1810 587 -58 6 -121 13 -140 16 -41 6 -645 15 -651 10z
m621 -230 c19 -2 64 -8 100 -11 111 -10 144 -14 170 -19 14 -3 45 -8 70 -11
195 -25 573 -120 808 -204 780 -280 1428 -733 1990 -1393 221 -260 498 -703
636 -1018 16 -36 37 -83 46 -105 158 -353 288 -857 335 -1290 27 -250 27 -741
1 -950 -2 -16 -7 -57 -10 -90 -4 -33 -8 -67 -11 -75 -2 -8 -6 -35 -9 -60 -14
-109 -61 -330 -101 -478 -53 -195 -141 -455 -197 -582 -142 -318 -250 -519
-414 -765 -484 -726 -1191 -1315 -1984 -1654 -407 -174 -901 -307 -1250 -337
-36 -3 -70 -7 -77 -9 -80 -26 -739 -26 -943 0 -19 2 -56 7 -82 10 -108 12
-359 55 -406 69 -9 3 -28 7 -42 10 -125 22 -464 125 -650 198 -189 74 -570
259 -640 312 -8 6 -31 20 -50 30 -68 37 -306 200 -410 280 -390 301 -735 664
-1001 1056 -73 107 -179 277 -179 286 0 3 -8 18 -19 32 -36 51 -168 319 -233
473 -161 382 -271 790 -322 1194 -10 79 -17 141 -22 185 -8 81 -11 613 -4 700
19 208 21 236 25 250 2 8 7 40 10 70 3 30 8 62 10 70 2 8 7 35 10 60 19 137
106 487 161 650 170 504 403 944 722 1358 149 196 367 430 562 607 410 371
939 692 1460 882 188 69 491 159 602 178 16 3 59 12 96 19 37 8 87 17 112 21
25 3 52 8 60 10 19 5 70 12 145 20 33 4 74 9 90 11 17 2 77 7 135 10 58 4 107
8 109 10 6 5 551 -4 591 -10z"/>
<path d="M5107 9552 c-10 -2 -33 -38 -57 -89 l-41 -85 -52 76 c-29 41 -59 78
-67 80 -8 3 -32 2 -52 -2 l-37 -7 85 -115 c46 -63 84 -124 85 -135 1 -11 3
-33 4 -50 2 -16 5 -47 6 -67 2 -37 3 -37 43 -34 46 2 43 -8 36 131 -3 45 3 62
56 160 81 150 79 144 41 142 -18 -1 -40 -3 -50 -5z"/>
<path d="M5371 9432 c-2 -70 -4 -165 -5 -211 l-1 -85 40 0 40 -1 3 88 3 87 89
0 90 0 0 35 0 35 -62 2 c-35 0 -73 0 -85 -1 -16 -1 -23 4 -24 16 -1 10 -2 25
-3 33 -1 8 1 24 5 34 5 18 16 20 105 20 l99 1 0 28 c1 16 -2 30 -6 33 -4 2
-69 6 -146 9 l-139 4 -3 -127z"/>
<path d="M5833 9499 c-11 -19 -46 -83 -78 -144 -32 -60 -71 -134 -87 -163 -17
-29 -29 -55 -27 -56 2 -2 23 -6 46 -10 l42 -5 21 46 20 46 63 -8 c34 -4 71 -8
82 -10 14 -1 24 -15 35 -48 8 -25 17 -48 20 -50 3 -2 24 -7 47 -11 l42 -6 -15
52 c-8 29 -19 69 -24 88 -6 19 -26 93 -45 164 -19 71 -36 131 -39 133 -2 3
-22 7 -44 10 -36 5 -41 3 -59 -28z m67 -146 c7 -32 15 -64 18 -72 4 -12 -4
-13 -48 -8 -29 4 -54 8 -56 10 -5 5 57 127 65 127 4 0 14 -26 21 -57z"/>
<path d="M4567 9494 c-2 -2 -23 -6 -48 -9 -25 -3 -59 -9 -77 -14 -18 -5 -32
-7 -32 -3 0 4 -4 1 -8 -6 -7 -11 53 -400 63 -411 2 -2 48 4 102 14 122 20 174
48 197 105 41 104 -3 263 -85 305 -27 14 -104 27 -112 19z m79 -95 c23 -19 43
-81 48 -149 2 -36 -14 -77 -36 -88 -37 -20 -119 -32 -123 -18 -4 11 -45 248
-45 259 0 19 133 16 156 -4z"/>
<path d="M6234 9441 c-113 -52 -156 -236 -82 -344 38 -54 135 -85 206 -65 34
9 102 68 102 88 0 4 -15 17 -33 28 l-34 19 -33 -35 c-29 -30 -37 -34 -72 -29
-49 7 -65 20 -79 66 -23 79 25 200 86 215 36 9 93 -18 107 -51 7 -15 17 -31
22 -34 8 -7 67 -1 75 7 2 2 -4 24 -13 49 -34 89 -156 131 -252 86z"/>
<path d="M4105 9399 c-95 -23 -157 -98 -157 -191 1 -107 62 -208 141 -233 66
-21 180 9 224 58 67 76 63 210 -10 305 -40 53 -122 78 -198 61z m94 -84 c32
-16 67 -81 74 -136 12 -96 -75 -163 -160 -123 -66 32 -100 168 -57 227 32 45
93 58 143 32z"/>
<path d="M6582 9358 l-9 -33 60 -18 c47 -14 58 -22 54 -35 -3 -9 -26 -82 -51
-162 -25 -80 -46 -148 -46 -152 0 -9 70 -31 77 -25 2 3 27 77 54 163 28 87 51
159 53 161 1 1 28 -5 59 -14 32 -9 59 -14 61 -12 2 2 7 18 10 35 6 27 4 32
-16 37 -13 3 -81 24 -153 46 -71 23 -133 41 -137 41 -4 0 -11 -15 -16 -32z"/>
<path d="M3638 9245 c-58 -21 -87 -45 -115 -92 -22 -39 -25 -52 -21 -107 7
-81 47 -159 102 -195 33 -21 51 -26 105 -26 154 0 241 118 197 267 -38 131
-151 196 -268 153z m125 -85 c34 -27 67 -98 67 -144 0 -71 -46 -118 -116 -118
-80 0 -158 158 -114 229 33 52 117 69 163 33z"/>
<path d="M7055 9224 c-6 -1 -22 -5 -37 -8 -93 -21 -176 -182 -148 -288 23 -83
128 -151 222 -142 85 8 147 64 180 164 43 130 -27 243 -165 269 -23 4 -47 6
-52 5z m72 -89 c69 -27 88 -91 53 -173 -27 -62 -57 -91 -102 -98 -70 -12 -131
47 -126 121 3 54 47 127 88 147 42 22 41 22 87 3z"/>
<path d="M3354 9125 c-18 -7 -35 -18 -38 -24 -4 -6 9 -69 29 -139 19 -71 35
-133 35 -138 0 -5 -12 5 -26 21 -14 17 -53 61 -87 99 -34 38 -63 73 -65 77 -6
15 -33 10 -69 -12 -37 -23 -37 -24 -18 -109 3 -14 8 -38 11 -54 2 -16 7 -32 9
-36 2 -4 7 -22 10 -41 3 -19 8 -43 12 -54 4 -13 -4 -7 -23 15 -16 19 -34 40
-39 46 -6 6 -35 41 -65 78 -29 36 -57 66 -61 66 -10 0 -69 -34 -69 -40 0 -5
65 -82 164 -195 33 -38 73 -82 87 -98 l25 -30 37 18 c21 10 39 21 42 25 3 4
-9 68 -26 141 -17 74 -33 142 -35 152 -3 16 63 -50 177 -177 l35 -39 37 18
c21 10 39 20 41 24 2 3 -2 31 -10 61 -9 30 -17 65 -20 76 -2 12 -19 80 -37
152 l-32 130 -31 -13z"/>
<path d="M7362 8946 c-113 -211 -122 -229 -122 -237 0 -9 53 -39 68 -39 5 0
19 22 32 50 13 27 31 61 40 75 l17 26 31 -25 c26 -23 31 -35 38 -99 4 -39 8
-76 9 -82 1 -5 3 -17 3 -26 2 -13 68 -59 86 -59 9 0 -5 152 -18 190 l-12 36
33 -4 c48 -6 87 14 110 56 46 83 8 137 -154 222 l-91 47 -70 -131z m177 -9
c70 -42 80 -57 58 -91 -10 -14 -26 -26 -37 -26 -25 0 -130 51 -130 63 0 13 42
87 49 87 3 0 30 -15 60 -33z"/>
<path d="M7770 8747 l0 -142 -46 -68 c-25 -38 -43 -75 -40 -82 3 -8 18 -21 33
-29 l29 -14 44 70 45 70 135 65 135 64 -40 25 c-22 13 -43 24 -47 24 -4 0 -29
-12 -55 -26 -26 -14 -63 -32 -81 -39 l-33 -14 4 95 5 95 -39 25 c-21 13 -41
24 -44 24 -3 0 -5 -64 -5 -143z"/>
<path d="M5189 8816 c-2 -2 -44 -6 -94 -10 -100 -7 -108 -8 -281 -37 -321 -52
-609 -147 -929 -304 -458 -226 -826 -524 -1174 -950 -63 -77 -241 -337 -241
-352 0 -3 -6 -14 -14 -22 -24 -27 -162 -301 -214 -426 -42 -101 -103 -270
-118 -325 -2 -8 -15 -58 -29 -110 -35 -127 -56 -227 -75 -350 -28 -178 -35
-289 -35 -535 0 -279 9 -370 61 -660 13 -76 70 -290 101 -385 246 -739 702
-1341 1351 -1784 306 -208 717 -390 1072 -475 115 -27 273 -58 340 -67 30 -3
62 -8 71 -9 65 -12 230 -20 424 -20 259 0 379 10 575 45 30 6 69 13 85 16 250
44 594 164 865 300 225 114 501 296 680 450 82 71 324 313 375 375 28 34 55
67 60 73 75 83 227 304 323 471 45 78 170 341 207 435 91 232 172 540 201 765
3 28 8 57 9 66 26 137 26 688 1 827 -2 9 -7 42 -11 72 -4 30 -9 64 -11 75 -2
10 -6 37 -10 59 -3 22 -7 43 -9 46 -2 3 -6 22 -9 42 -20 129 -118 441 -196
623 -324 763 -917 1385 -1665 1745 -77 37 -178 82 -225 100 -47 18 -94 36
-105 41 -28 12 -199 65 -270 84 -146 40 -369 80 -545 100 -62 7 -535 17 -541
11z m521 -121 c19 -2 58 -7 85 -10 54 -6 58 -6 185 -29 133 -24 138 -25 256
-56 1201 -318 2120 -1279 2389 -2498 13 -62 27 -134 31 -160 3 -26 7 -58 9
-72 2 -14 7 -45 10 -70 3 -25 8 -63 11 -85 9 -72 12 -488 3 -575 -20 -199 -30
-267 -65 -429 -225 -1043 -937 -1910 -1924 -2341 -310 -136 -681 -229 -1027
-257 -165 -14 -552 -8 -683 11 -156 23 -164 24 -275 47 -452 94 -905 299
-1295 587 -41 31 -80 61 -86 66 -7 6 -31 27 -55 46 -102 83 -252 229 -359 350
-293 331 -523 731 -668 1165 -27 80 -87 307 -97 368 -13 75 -35 207 -39 237
-28 197 -29 585 -1 815 5 41 18 139 20 145 0 3 5 28 10 55 4 28 10 55 11 60 2
6 6 24 9 40 13 64 62 244 95 345 167 520 526 1060 950 1430 41 36 77 67 80 70
15 16 185 144 250 187 181 121 405 244 550 303 30 12 69 28 85 35 70 30 290
104 360 121 28 7 243 56 259 60 11 2 54 8 96 14 42 6 86 12 98 15 11 2 63 7
114 11 51 3 95 8 97 10 5 5 469 -5 511 -11z"/>
<path d="M5100 8459 c-41 -4 -104 -13 -140 -18 -36 -6 -78 -13 -95 -16 -29 -4
-109 -20 -150 -29 -130 -28 -332 -92 -471 -149 -98 -40 -274 -123 -314 -147
-8 -5 -64 -39 -125 -75 -483 -291 -896 -737 -1150 -1245 -114 -227 -226 -545
-261 -737 -2 -13 -6 -34 -8 -48 -3 -14 -7 -33 -10 -43 -3 -9 -7 -37 -10 -62
-5 -43 -9 -69 -22 -155 -10 -64 -13 -544 -4 -610 4 -33 10 -82 13 -110 50
-493 288 -1069 616 -1490 306 -393 733 -730 1161 -915 41 -18 89 -38 105 -45
154 -67 465 -156 625 -181 258 -39 320 -44 530 -43 235 0 351 11 602 54 65 12
172 39 293 75 877 262 1619 946 1958 1805 86 218 158 480 182 660 4 28 9 58
11 68 3 17 8 68 19 192 11 121 5 419 -11 545 -14 114 -22 165 -29 200 -3 14
-8 41 -11 60 -3 19 -15 71 -25 115 -11 44 -22 88 -24 98 -11 50 -82 254 -120
348 -124 303 -319 621 -521 849 -72 82 -260 269 -334 331 -302 258 -687 470
-1076 594 -45 14 -90 27 -100 29 -11 2 -46 11 -79 19 -80 21 -249 52 -385 72
-70 10 -556 13 -640 4z m555 -53 c115 -12 151 -17 265 -37 513 -89 1014 -324
1415 -663 87 -73 283 -269 357 -356 190 -224 355 -491 474 -767 55 -129 129
-349 149 -443 2 -8 10 -44 19 -80 8 -36 18 -83 22 -104 3 -21 8 -48 10 -60 2
-11 7 -41 10 -66 3 -25 7 -55 9 -66 19 -111 25 -420 12 -595 -7 -87 -28 -242
-42 -309 -3 -14 -8 -41 -11 -60 -13 -75 -65 -261 -104 -374 -213 -616 -640
-1167 -1186 -1532 -62 -41 -117 -74 -122 -74 -6 0 -12 -3 -14 -7 -14 -34 -430
-223 -608 -278 -66 -20 -274 -75 -275 -72 -72 206 -169 319 -392 454 -53 32
-56 53 -57 515 -1 235 1 424 5 420 3 -4 32 -38 64 -77 260 -316 579 -503 990
-579 27 -5 185 -20 225 -21 11 0 15 10 14 35 -5 152 -56 271 -169 386 -64 65
-84 78 -225 147 -85 41 -189 99 -230 127 -209 147 -410 421 -534 733 -32 79
-96 269 -96 283 0 3 45 -39 100 -94 55 -54 141 -129 192 -166 220 -157 511
-259 768 -268 l75 -3 0 30 c1 63 -27 163 -66 244 -64 129 -148 209 -309 290
-149 75 -230 131 -320 220 -117 117 -196 228 -283 399 -81 158 -81 161 -11
116 167 -107 410 -184 625 -200 46 -3 101 -7 121 -9 l38 -3 -5 57 c-17 214
-163 412 -364 491 -130 51 -201 96 -294 188 -102 100 -182 237 -235 402 -48
150 -51 143 39 89 43 -26 118 -63 166 -84 98 -41 288 -98 306 -92 13 4 12 59
-4 152 -30 180 -116 345 -260 495 -102 107 -145 168 -201 289 -78 168 -80 172
-132 223 -111 109 -286 123 -422 34 -50 -34 -114 -115 -129 -166 -12 -41 -83
-179 -122 -238 -20 -30 -71 -91 -112 -135 -123 -129 -193 -241 -239 -387 -35
-106 -55 -270 -34 -270 26 0 174 45 267 81 55 21 140 61 188 89 48 27 89 50
91 50 4 0 -26 -108 -49 -175 -40 -117 -131 -266 -215 -356 -48 -51 -156 -124
-230 -157 -152 -67 -185 -87 -260 -162 -103 -103 -155 -213 -173 -367 -5 -39
-3 -43 16 -44 241 -9 561 77 761 205 69 44 69 42 -6 -109 -83 -166 -166 -284
-283 -400 -90 -91 -175 -151 -305 -215 -122 -61 -158 -86 -223 -154 -92 -96
-153 -229 -164 -358 l-6 -68 74 5 c390 27 716 181 986 464 88 92 88 90 0 -154
-121 -336 -312 -614 -537 -781 -72 -54 -131 -87 -243 -138 -179 -81 -277 -170
-342 -311 -49 -106 -73 -253 -42 -256 28 -3 128 4 225 16 138 18 379 102 515
179 171 97 360 258 486 415 l52 63 -3 -428 c-4 -504 0 -484 -106 -544 -129
-73 -246 -204 -303 -341 l-24 -56 -120 34 c-174 49 -483 176 -595 244 -14 9
-74 44 -134 80 -222 131 -485 350 -662 550 -83 94 -97 111 -161 195 -342 449
-553 1007 -600 1579 -13 160 -6 515 13 607 2 13 6 43 9 68 3 25 8 56 11 70 2
14 7 39 10 55 20 116 114 448 144 510 5 11 18 43 29 70 134 350 404 744 707
1034 441 421 998 701 1584 795 149 24 159 25 265 32 55 4 101 7 102 9 6 4 333
-3 388 -9z m-128 -843 c17 -21 40 -58 49 -83 26 -70 82 -179 126 -245 l39 -60
-47 50 c-52 55 -99 125 -144 215 -39 78 -72 160 -63 160 4 0 22 -17 40 -37z
m397 -593 c54 -70 110 -184 135 -277 24 -88 26 -87 -102 -37 -135 51 -237 111
-466 272 -17 12 -17 10 -6 -40 7 -29 23 -100 35 -158 43 -196 109 -362 195
-488 l46 -67 -47 50 c-92 99 -180 256 -230 413 -28 89 -88 361 -81 368 2 3 59
-33 125 -79 66 -46 156 -102 199 -124 98 -51 251 -109 260 -99 11 10 -23 131
-56 202 -16 34 -48 91 -70 125 -35 54 -36 59 -10 29 17 -19 50 -60 73 -90z
m-356 -1028 c75 -53 155 -109 177 -123 83 -54 246 -123 340 -145 90 -21 163
-34 218 -39 69 -7 69 -7 62 17 -3 12 -21 53 -38 89 -39 80 -25 79 34 -1 39
-54 63 -102 84 -169 l7 -24 -68 7 c-100 10 -238 40 -324 71 -119 43 -213 97
-392 225 -93 65 -168 117 -168 115 0 -2 6 -19 14 -37 24 -56 42 -99 82 -203
21 -55 58 -140 81 -188 24 -48 43 -90 43 -93 0 -8 110 -175 147 -224 31 -41
29 -39 -20 12 -106 109 -234 327 -316 538 -23 58 -46 114 -51 125 -23 49 -58
145 -53 145 2 0 66 -44 141 -98z m388 -1195 c142 -92 324 -163 492 -192 124
-22 132 -21 122 13 -15 51 -43 117 -62 144 -38 55 8 17 53 -45 38 -50 99 -175
99 -201 0 -22 -219 20 -348 66 -169 61 -334 161 -462 280 -48 44 -49 46 -10
16 25 -19 77 -56 116 -81z m199 -1237 c161 -80 311 -124 487 -145 l57 -6 -14
51 c-7 27 -25 72 -40 98 l-26 47 47 -50 c45 -48 95 -139 108 -198 l7 -28 -53
6 c-47 5 -119 17 -186 31 -122 25 -337 118 -457 200 -67 45 -225 171 -225 180
0 2 39 -25 88 -61 48 -36 141 -92 207 -125z"/>
<path d="M2778 5520 c-60 -60 -108 -112 -108 -116 0 -4 50 -56 110 -116 l110
-110 110 112 c61 61 110 113 110 116 0 5 -219 224 -223 224 -1 -1 -50 -50
-109 -110z"/>
<path d="M7752 5517 l-112 -112 113 -113 113 -113 113 112 112 112 -43 45
c-40 42 -181 182 -183 182 0 0 -51 -51 -113 -113z"/>
<path d="M1721 7016 c-22 -29 -134 -328 -172 -461 -47 -161 -99 -390 -114
-500 -4 -22 -8 -51 -10 -65 -13 -79 -25 -177 -32 -265 -14 -188 -8 -652 11
-750 2 -11 7 -47 10 -80 44 -397 194 -892 387 -1278 120 -240 355 -602 480
-741 7 -8 207 -11 215 -4 1 2 -16 23 -38 48 -110 124 -317 420 -415 594 -115
204 -232 470 -307 698 -59 178 -136 509 -151 646 -2 20 -6 51 -9 67 -6 40 -17
140 -22 217 -6 90 -6 462 1 533 7 82 15 164 20 200 14 106 18 132 21 150 2 11
9 49 15 85 35 208 129 523 224 755 30 72 55 136 57 144 2 11 -15 14 -80 16
-49 1 -86 -3 -91 -9z"/>
<path d="M8900 7020 c-5 -3 15 -63 45 -132 100 -234 192 -540 236 -788 6 -36
13 -74 15 -85 26 -150 48 -436 47 -625 0 -106 -11 -330 -18 -372 -5 -33 -16
-116 -21 -168 -6 -63 -61 -327 -91 -440 -135 -511 -405 -1036 -745 -1445 -57
-70 -73 -95 -61 -96 10 0 58 0 108 0 103 2 88 -9 195 136 297 400 506 821 640
1284 35 120 73 278 86 351 2 14 7 36 9 50 8 40 11 55 31 208 2 17 6 47 9 65
29 213 27 701 -6 932 -5 39 -11 84 -14 100 -2 17 -6 44 -9 60 -3 17 -7 44 -10
60 -30 169 -80 369 -139 545 -40 122 -126 341 -138 355 -10 10 -154 14 -169 5z"/>
<path d="M2825 2824 c-32 -23 -83 -64 -177 -142 -59 -49 -86 -77 -82 -87 4 -8
9 -15 11 -15 3 0 36 25 74 55 37 30 70 55 72 55 3 0 24 -25 47 -55 40 -52 59
-63 67 -38 2 6 -17 35 -41 66 l-46 55 47 35 46 34 27 -31 c14 -17 35 -43 47
-58 18 -24 23 -26 33 -13 10 11 3 25 -33 73 -61 79 -68 84 -92 66z"/>
<path d="M8017 2746 c-166 -60 -202 -267 -64 -363 32 -23 53 -28 103 -30 53
-1 69 2 108 27 55 35 96 94 103 149 6 47 -17 119 -46 145 -21 20 -23 18 -87
-60 -29 -35 -35 -47 -25 -57 10 -9 20 -3 50 31 20 23 40 42 43 42 14 0 30 -64
25 -100 -14 -105 -140 -170 -236 -122 -133 66 -97 264 55 304 31 9 44 17 44
30 0 21 -20 22 -73 4z"/>
<path d="M2931 2586 c-51 -15 -117 -82 -131 -134 -25 -96 21 -191 114 -233
146 -66 309 73 267 228 -28 104 -146 170 -250 139z m144 -55 c73 -41 94 -156
41 -225 -115 -151 -349 -13 -267 158 43 87 139 116 226 67z"/>
<path d="M7733 2464 c-3 -9 6 -28 24 -47 81 -87 163 -184 148 -175 -9 5 -31 9
-150 23 -22 3 -49 7 -60 9 -11 3 -54 8 -95 12 l-75 6 31 -33 c16 -19 68 -77
115 -129 119 -134 107 -124 124 -110 13 11 6 23 -48 83 -131 147 -130 147
-105 141 24 -4 66 -10 141 -19 23 -3 77 -10 119 -16 42 -6 81 -10 87 -8 5 2
-7 22 -27 45 -61 68 -163 183 -186 209 -25 29 -34 31 -43 9z"/>
<path d="M3192 2211 c-62 -77 -112 -144 -112 -149 0 -5 6 -12 14 -15 8 -3 32
20 62 58 27 35 54 63 59 61 6 -2 10 -48 10 -114 0 -75 4 -115 12 -123 21 -21
25 -5 26 99 l2 99 35 -18 c42 -23 53 -23 95 -4 50 24 69 84 42 131 -12 21
-115 114 -127 114 -3 0 -56 -63 -118 -139z m173 48 c50 -46 57 -77 25 -109
-31 -31 -60 -25 -123 26 -27 22 -34 39 -19 46 4 2 21 20 36 41 16 20 30 37 32
37 3 0 25 -19 49 -41z"/>
<path d="M7452 2232 c-9 -6 19 -49 99 -155 62 -81 116 -147 121 -147 30 0 8
43 -87 166 -59 77 -109 140 -113 141 -4 2 -13 -1 -20 -5z"/>
<path d="M7314 2140 c-31 -12 -54 -49 -54 -85 0 -57 38 -85 122 -91 94 -7 125
-20 137 -55 10 -28 8 -34 -19 -61 -21 -20 -36 -28 -50 -24 -11 3 -28 8 -39 11
-26 8 -36 -22 -12 -35 26 -14 71 -15 103 -2 75 31 81 149 9 182 -28 13 -46 17
-131 24 -67 6 -96 32 -78 72 13 27 45 39 77 29 15 -4 23 -1 28 10 11 31 -43
45 -93 25z"/>
<path d="M3586 1913 c-26 -102 -45 -187 -43 -189 2 -2 54 37 117 86 62 50 115
90 117 90 4 0 -4 -73 -12 -120 -3 -14 -7 -43 -10 -65 -3 -22 -8 -55 -11 -72
-3 -18 -2 -33 2 -33 14 0 273 263 268 272 -11 18 -32 5 -110 -70 -112 -108
-114 -109 -109 -80 3 12 7 44 10 69 3 25 8 56 10 70 3 13 8 46 11 73 6 40 5
48 -7 41 -16 -10 -148 -114 -167 -133 -8 -6 -23 -17 -34 -23 -18 -10 -20 -9
-14 6 12 33 56 214 56 233 0 11 -6 22 -14 25 -11 4 -25 -38 -60 -180z"/>
<path d="M7114 2013 c-50 -9 -84 -81 -62 -129 12 -25 58 -54 87 -54 44 0 124
-23 142 -41 21 -21 19 -63 -3 -85 -18 -18 -58 -23 -86 -11 -32 15 -56 -9 -27
-26 33 -20 58 -24 89 -16 64 18 102 90 75 140 -25 48 -56 63 -162 75 -22 3
-48 9 -58 15 -58 31 -7 113 56 89 20 -8 27 -7 32 6 3 8 2 19 -3 23 -12 11 -55
19 -80 14z"/>
<path d="M6885 1885 c-52 -26 -89 -50 -87 -57 3 -14 10 -30 93 -206 l58 -123
48 24 c26 14 70 34 96 46 35 16 47 27 43 37 -3 9 -6 17 -6 19 0 2 -31 -12 -70
-31 -38 -18 -75 -34 -83 -34 -11 0 -67 98 -67 118 0 4 34 23 75 42 69 31 89
50 67 64 -5 3 -42 -10 -81 -29 -40 -19 -74 -35 -77 -35 -5 0 -56 101 -52 104
2 1 37 17 78 37 57 26 74 39 72 52 -2 9 -7 17 -10 16 -4 0 -47 -20 -97 -44z"/>
<path d="M4090 1797 c-59 -28 -88 -59 -106 -109 -20 -56 -18 -104 7 -154 35
-73 109 -115 192 -108 75 6 125 40 161 111 80 158 -95 337 -254 260z m165 -47
c100 -63 88 -217 -22 -274 -104 -53 -232 35 -221 154 12 121 140 184 243 120z"/>
<path d="M6567 1760 c-82 -37 -127 -108 -122 -190 11 -160 180 -239 316 -147
37 25 82 85 73 98 -10 17 -30 9 -47 -20 -40 -67 -135 -96 -209 -63 -124 54
-123 223 0 283 43 21 106 23 153 4 10 -4 19 0 22 9 15 39 -118 57 -186 26z"/>
<path d="M4536 1665 c-74 -26 -125 -93 -131 -174 -11 -151 147 -253 284 -184
115 57 142 207 55 303 -52 57 -137 79 -208 55z m145 -51 c69 -41 94 -131 56
-204 -27 -54 -61 -80 -113 -87 -90 -11 -172 52 -179 140 -11 128 125 215 236
151z"/>
<path d="M6132 1637 c-42 -16 -91 -63 -108 -104 -18 -43 -18 -115 1 -160 58
-138 259 -152 346 -24 19 30 24 49 24 108 0 65 -3 75 -31 110 -61 75 -146 101
-232 70z m166 -58 c40 -31 53 -56 58 -112 17 -172 -212 -238 -292 -85 -18 35
-18 111 0 146 44 84 160 110 234 51z"/>
<path d="M4885 1551 c-3 -31 -8 -67 -10 -81 -5 -35 -28 -224 -28 -230 0 -8 74
-19 143 -21 94 -3 142 26 175 103 30 72 18 157 -28 206 -34 37 -68 51 -160 65
l-85 14 -7 -56z m180 -21 c52 -25 79 -70 76 -128 -3 -103 -63 -154 -170 -146
-85 5 -84 4 -76 81 4 38 9 75 10 83 2 8 6 44 10 78 l7 64 52 -6 c28 -4 69 -15
91 -26z"/>
<path d="M5735 1570 c-44 -6 -44 -6 -33 -90 4 -30 10 -88 13 -127 4 -40 8 -81
10 -90 2 -10 4 -30 4 -45 1 -21 5 -25 21 -21 18 5 19 11 14 62 -3 31 -7 68
-10 84 -7 45 18 32 97 -51 59 -61 79 -77 98 -74 22 3 17 11 -53 81 l-78 78 32
6 c49 10 89 57 85 98 -8 88 -52 108 -200 89z m149 -51 c14 -20 13 -66 -3 -82
-18 -18 -119 -31 -130 -17 -11 14 -16 110 -7 114 6 2 37 5 68 5 47 1 59 -3 72
-20z"/>
<path d="M5397 1514 c1 -27 2 -111 3 -186 2 -105 5 -138 16 -142 21 -8 25 7
23 89 -1 42 0 78 3 80 2 2 24 5 48 6 63 2 107 17 125 42 23 33 19 91 -9 123
-22 26 -30 28 -117 32 l-94 4 2 -48z m176 -11 c9 -9 17 -26 17 -38 0 -41 -30
-64 -88 -68 -29 -2 -56 1 -60 7 -3 6 -6 33 -6 61 -1 42 2 51 19 56 33 9 99 -1
118 -18z"/>
</g>
</svg>
